<?xml version="1.0" encoding="UTF-8" standalone="no"?>
<!-- Created with Inkscape (http://www.inkscape.org/) -->

<svg
   xmlns:dc="http://purl.org/dc/elements/1.1/"
   xmlns:cc="http://creativecommons.org/ns#"
   xmlns:rdf="http://www.w3.org/1999/02/22-rdf-syntax-ns#"
   xmlns:svg="http://www.w3.org/2000/svg"
   xmlns="http://www.w3.org/2000/svg"
   xmlns:xlink="http://www.w3.org/1999/xlink"
   xmlns:sodipodi="http://sodipodi.sourceforge.net/DTD/sodipodi-0.dtd"
   xmlns:inkscape="http://www.inkscape.org/namespaces/inkscape"
   id="svg2876"
   version="1.1"
   inkscape:version="0.47 r22583"
   width="2592"
   height="1952"
   sodipodi:docname="O7j3W.jpg">
  <metadata
     id="metadata2882">
    <rdf:RDF>
      <cc:Work
         rdf:about="">
        <dc:format>image/svg+xml</dc:format>
        <dc:type
           rdf:resource="http://purl.org/dc/dcmitype/StillImage" />
        <dc:title></dc:title>
      </cc:Work>
    </rdf:RDF>
  </metadata>
  <defs
     id="defs2880">
    <inkscape:perspective
       sodipodi:type="inkscape:persp3d"
       inkscape:vp_x="0 : 0.5 : 1"
       inkscape:vp_y="0 : 1000 : 0"
       inkscape:vp_z="1 : 0.5 : 1"
       inkscape:persp3d-origin="0.5 : 0.33333333 : 1"
       id="perspective2884" />
    <inkscape:perspective
       id="perspective3684"
       inkscape:persp3d-origin="0.5 : 0.33333333 : 1"
       inkscape:vp_z="1 : 0.5 : 1"
       inkscape:vp_y="0 : 1000 : 0"
       inkscape:vp_x="0 : 0.5 : 1"
       sodipodi:type="inkscape:persp3d" />
  </defs>
  <sodipodi:namedview
     pagecolor="#ffffff"
     bordercolor="#666666"
     borderopacity="1"
     objecttolerance="10"
     gridtolerance="10"
     guidetolerance="10"
     inkscape:pageopacity="0"
     inkscape:pageshadow="2"
     inkscape:window-width="1920"
     inkscape:window-height="1005"
     id="namedview2878"
     showgrid="false"
     showguides="true"
     inkscape:guide-bbox="true"
     inkscape:zoom="0.24282787"
     inkscape:cx="215.27118"
     inkscape:cy="1182.2247"
     inkscape:window-x="0"
     inkscape:window-y="25"
     inkscape:window-maximized="1"
     inkscape:current-layer="svg2876" />
  <image
     xlink:href="file:///tmp/O7j3W.jpg"
     width="2592"
     height="1952"
     id="image2886"
     x="0"
     y="0" />
  <path
     style="fill:#ffffff;stroke:#000000;stroke-width:13.8;stroke-linecap:butt;stroke-linejoin:miter;stroke-opacity:1;stroke-miterlimit:4;stroke-dasharray:none"
     d="m 304.74262,823.62869 c 197.35115,34.69285 506.64375,-44.96815 716.55698,-22.64979 28.9391,3.07686 -23.99809,91.51178 -6.1772,88.54009 28.652,-4.7778 141.6627,-90.12536 168.8438,-121.48523 6.3258,-7.2983 -110.2463,-135.31029 -137.9578,-162.66667 -11.6513,-11.50197 3.3852,89.90768 -16.4725,78.24473 -61.00328,-35.82883 -325.76559,-13.00228 -319.15615,-18.53166 110.28384,-92.26219 178.8707,-243.59685 337.68775,-191.49366 22.4517,7.36573 -20.1963,111.21799 -8.2363,100.89451 16.9353,-14.61797 116.441,-116.74743 144.135,-160.60759 15.0149,-23.77983 -111.9005,-126.54943 -140.0168,-142.07595 -20.9177,-11.55129 10.811,105.07688 -10.2954,100.89451 -282.3906,-55.95773 -367.45201,123.12015 -448.87763,261.50211 -11.52826,19.59214 -37.66559,29.67885 -59.71308,32.94515 -70.61074,10.46085 -174.51665,-22.83489 -218.2616,8.23629 -29.69528,21.09197 -42.87389,141.07822 -2.05907,148.25316 z"
     id="path3662"
     sodipodi:nodetypes="csssssssssssssss" />
  <path
     style="fill:#ffffff;stroke:#000000;stroke-width:13.8;stroke-linecap:butt;stroke-linejoin:miter;stroke-opacity:1;stroke-miterlimit:4;stroke-dasharray:none"
     d="m 1873.7553,1365.1645 c 18.6195,-108.6536 -408.4349,-86.8002 -356.2194,214.1435 48.4504,279.2431 536.7135,126.9619 420.0506,-86.481 -4.4165,-8.0802 -100.3103,73.3587 -76.1857,43.2405 68.0515,-84.9585 48.6692,-180.4091 70.0085,-166.7848 28.0067,17.8812 126.9375,45.9601 146.1941,39.1223 25.4888,-9.0508 -71.3498,9.7087 -61.7722,35.0043 131.6474,347.698 -410.7356,508.9901 -568.3038,197.6709 -151.7248,-299.7739 339.4039,-597.9962 494.1773,-329.4516 14.8009,25.6808 -72.9558,82.7508 -67.9494,53.5359 z"
     id="path3666"
     sodipodi:nodetypes="csssssssss" />
  <path
     style="fill:#ffffff;stroke:#000000;stroke-width:13.8;stroke-linecap:butt;stroke-linejoin:miter;stroke-opacity:1;stroke-miterlimit:4;stroke-dasharray:none"
     d="m 1613.5938,786.12115 c -17.4908,-23.52941 -40.2213,24.51908 -59.6953,-29.48368 -42.3165,-117.34612 -85.2077,-451.52821 13.8318,-484.47853 145.4537,-48.39228 534.6721,-26.3703 563.8297,20.01977 19.1216,30.42266 41.7152,314.50445 0,436.79508 -22.9414,67.25392 -305.1771,-8.23309 -454.9949,48.77545 -15.2817,56.05041 -143.7786,112.28257 -168.5301,99.37088 18.8963,7.81766 124.2532,-57.16196 105.5588,-90.99897 z"
     id="path3668"
     sodipodi:nodetypes="cssssccc" />
  <path
     sodipodi:type="arc"
     style="opacity:0.86526950000000002;fill:#decd87;stroke:#000000;stroke-width:13.80000019000000044;stroke-linecap:square;stroke-miterlimit:4;stroke-opacity:1;stroke-dasharray:none;stroke-dashoffset:0"
     id="path3670"
     sodipodi:cx="1687.485"
     sodipodi:cy="575.36749"
     sodipodi:rx="16.01582"
     sodipodi:ry="19.655779"
     d="m 1703.5008,575.36749 a 16.01582,19.655779 0 1 1 -32.0316,0 16.01582,19.655779 0 1 1 32.0316,0 z" />
  <path
     sodipodi:type="arc"
     style="opacity:0.86526950000000002;fill:#decd87;stroke:#000000;stroke-width:13.80000019000000044;stroke-linecap:square;stroke-miterlimit:4;stroke-opacity:1;stroke-dasharray:none;stroke-dashoffset:0"
     id="path3672"
     sodipodi:cx="1845.4592"
     sodipodi:cy="565.90363"
     sodipodi:rx="25.479713"
     sodipodi:ry="21.839754"
     d="m 1870.9389,565.90363 a 25.479713,21.839754 0 1 1 -50.9594,0 25.479713,21.839754 0 1 1 50.9594,0 z" />
  <path
     sodipodi:type="arc"
     style="opacity:0.86526950000000002;fill:#decd87;stroke:#000000;stroke-width:13.80000019000000044;stroke-linecap:square;stroke-miterlimit:4;stroke-opacity:1;stroke-dasharray:none;stroke-dashoffset:0"
     id="path3674"
     sodipodi:cx="1993.9695"
     sodipodi:cy="565.90363"
     sodipodi:rx="25.479713"
     sodipodi:ry="21.839754"
     d="m 2019.4492,565.90363 a 25.479713,21.839754 0 1 1 -50.9594,0 25.479713,21.839754 0 1 1 50.9594,0 z" />
  <path
     style="fill:#ffffff;stroke:#000000;stroke-width:13.80000019000000044;stroke-linecap:butt;stroke-linejoin:miter;stroke-miterlimit:4;stroke-opacity:1;stroke-dasharray:none"
     d="m 388.09442,1791.7792 c -17.4908,-23.5294 -40.2213,24.5191 -59.6953,-29.4837 -42.3165,-117.3461 -85.2077,-451.5282 13.8318,-484.4785 145.4537,-48.3923 534.6721,-26.3703 563.8297,20.0197 19.1216,30.4227 41.7152,314.5045 0,436.7951 -22.9414,67.254 -305.1771,-8.233 -454.9949,48.7755 -15.2817,56.0504 -143.7786,112.2826 -168.5301,99.3709 18.8963,7.8176 124.2532,-57.162 105.5588,-90.999 z"
     id="path3668-9"
     sodipodi:nodetypes="cssssccc" />
  <path
     style="fill:#decd87;stroke:#000000;stroke-width:13.8;stroke-linecap:butt;stroke-linejoin:miter;stroke-opacity:1;fill-opacity:1;stroke-miterlimit:4;stroke-dasharray:none"
     d="m 529.25003,1330.2951 c -29.04924,-3.2683 150.18573,-33.5047 133.2225,-1.0921 -35.08878,67.0463 -1.18688,186.5403 -13.10385,235.5054 -4.20413,17.2742 -42.05089,-9.9521 -66.61125,6.1879 -58.73604,38.5989 2.81115,-234.265 -53.5074,-240.6012 z"
     id="path3698"
     sodipodi:nodetypes="cssss" />
  <path
     style="fill:#decd87;stroke:#000000;stroke-width:7.4;stroke-linecap:butt;stroke-linejoin:miter;stroke-opacity:1;fill-opacity:1;stroke-miterlimit:4;stroke-dasharray:none"
     d="m 608.4557,1713.4051 c 35.41672,2.5252 52.08945,-66.1761 -2.05907,-62.0296 -17.89022,1.37 -5.37751,-9.3073 1.28692,-10.8101 54.57639,-12.3069 67.60475,83.8044 2.05907,79.5316 -64.60377,-4.2114 -31.45797,-70.0496 -3.86076,-54.5653 -26.83948,10.7519 -41.45745,45.9069 2.57384,47.8734 z"
     id="path3702"
     sodipodi:nodetypes="cssscc" />
</svg>
