<?xml version="1.0" encoding="UTF-8" standalone="no"?>
<!DOCTYPE svg PUBLIC "-//W3C//DTD SVG 1.1//EN" "http://www.w3.org/Graphics/SVG/1.1/DTD/svg11.dtd">
<svg width="100%" height="100%" viewBox="0 0 512 512" version="1.1" xmlns="http://www.w3.org/2000/svg" xmlns:xlink="http://www.w3.org/1999/xlink" xml:space="preserve" xmlns:serif="http://www.serif.com/" style="fill-rule:evenodd;clip-rule:evenodd;stroke-linejoin:round;stroke-miterlimit:2;">
    <g transform="matrix(2.96294,0,0,2.8498,-541.437,-135.357)">
        <g transform="matrix(0.864946,5.93028e-18,5.46603e-18,0.908195,36.3482,61.3753)">
            <ellipse cx="269.137" cy="89.621" rx="42.952" ry="68.849" style="fill:rgb(88,29,23);"/>
        </g>
        <g transform="matrix(-1.29444,-9.54287e-18,1.05316e-17,1.63365,617.961,-149.07)">
            <path d="M248.414,204.882L261.773,223.3L258.669,211.058L248.414,204.882Z" style="fill:rgb(88,29,23);"/>
            <path d="M258.39,208.864L266.529,229.662L267.433,209.858L258.39,208.864Z" style="fill:rgb(88,29,23);"/>
        </g>
        <g transform="matrix(1.29444,9.54287e-18,1.05316e-17,1.63365,-79.2373,-149.07)">
            <path d="M248.414,204.882L261.773,223.3L258.669,211.058L248.414,204.882Z" style="fill:rgb(88,29,23);"/>
            <path d="M258.39,208.864L266.529,229.662L267.433,209.858L258.39,208.864Z" style="fill:rgb(88,29,23);"/>
        </g>
        <g id="Bill" transform="matrix(1,0,0,1,0,3.79911)">
            <g transform="matrix(1,0,0,0.770664,0,16.4146)">
                <path d="M269.69,36.755C274.557,36.752 277.193,36.481 276.299,49.911C275.187,66.601 277.492,66.624 277.833,69.523C278.175,72.422 269.552,71.399 269.552,71.399C269.552,71.399 269.447,36.755 269.69,36.755Z" style="fill:rgb(167,107,63);"/>
            </g>
            <g transform="matrix(-1,0,0,0.770664,541.352,16.4146)">
                <path d="M269.69,36.755C274.557,36.752 277.193,36.481 276.299,49.911C275.187,66.601 277.492,66.624 277.833,69.523C278.175,72.422 269.552,71.399 269.552,71.399C269.552,71.399 269.447,36.755 269.69,36.755Z" style="fill:rgb(167,107,63);"/>
            </g>
            <g transform="matrix(1.1183,-0.228554,0.228554,1.1183,-47.9706,53.6931)">
                <ellipse cx="274.321" cy="65.034" rx="0.694" ry="1.698" style="fill:rgb(73,10,21);"/>
            </g>
            <g transform="matrix(-1.1183,-0.228554,-0.228554,1.1183,589.281,53.6931)">
                <ellipse cx="274.321" cy="65.034" rx="0.694" ry="1.698" style="fill:rgb(73,10,21);"/>
            </g>
        </g>
        <g transform="matrix(1.22799,0,0,1,-35.9702,7.29183)">
            <ellipse cx="249.771" cy="83.417" rx="11.57" ry="19.938" style="fill:rgb(114,49,27);"/>
        </g>
        <g transform="matrix(0.796088,-0.27548,0.300139,1.69215,35.0921,33.1469)">
            <ellipse cx="278.413" cy="74.206" rx="1.723" ry="1.956"/>
        </g>
        <g transform="matrix(-0.796088,-0.27548,-0.300139,1.69215,506.301,33.1469)">
            <ellipse cx="278.413" cy="74.206" rx="1.723" ry="1.956"/>
        </g>
        <g transform="matrix(0.395436,-2.16733e-17,0,0.232917,184.398,54.8783)">
            <ellipse cx="237.872" cy="112.004" rx="1.185" ry="3.161" style="fill:white;"/>
        </g>
        <g transform="matrix(0.395436,-2.16733e-17,0,0.232917,168.963,54.8783)">
            <ellipse cx="237.872" cy="112.004" rx="1.185" ry="3.161" style="fill:white;"/>
        </g>
    </g>
</svg>
